Coordinates
version=1
nRows=14
nColumns=40
inDegrees=yes

Units are S.I. units (second, meters, Newtons, ...)
Angles are in degrees.

endheader
time	pelvis_tilt	pelvis_list	pelvis_rotation	pelvis_tx	pelvis_ty	pelvis_tz	hip_flexion_r	hip_adduction_r	hip_rotation_r	knee_angle_r	knee_angle_r_beta	ankle_angle_r	subtalar_angle_r	mtp_angle_r	hip_flexion_l	hip_adduction_l	hip_rotation_l	knee_angle_l	knee_angle_l_beta	ankle_angle_l	subtalar_angle_l	mtp_angle_l	lumbar_extension	lumbar_bending	lumbar_rotation	arm_flex_r	arm_add_r	arm_rot_r	elbow_flex_r	pro_sup_r	wrist_flex_r	wrist_dev_r	arm_flex_l	arm_add_l	arm_rot_l	elbow_flex_l	pro_sup_l	wrist_flex_l	wrist_dev_l
     46.37000000	     -2.43035868	     -5.10502717	      4.32015726	      1.08079771	      0.93298930	      0.48520579	      7.05336871	      3.42058444	    -14.66202517	     13.38082648	     13.38082648	     10.41800216	     -0.76484044	     -5.78099449	     32.27607347	    -13.69036026	      2.41947109	     63.09881014	     63.09881014	      5.95765214	    -18.97217224	     13.56761761	     -9.30716921	      5.26997807	      2.32119482	     22.62240613	    -25.26409316	     -8.18895751	    107.09068532	     44.29288149	      0.00000000	      0.00000000	     -7.05863984	     -7.26503737	     -3.02409692	     26.74699870	     44.73878234	      0.00000000	      0.00000000
     46.38371429	     -2.57773966	     -5.04627658	      4.77591584	      1.07929791	      0.93305233	      0.48553541	      6.64139277	      3.46880866	    -14.96115077	     12.84576310	     12.84576310	     10.49504738	     -0.72807689	     -5.77774080	     33.13622962	    -13.51443945	      1.93710925	     60.74891361	     60.74891361	      7.23603015	    -19.07503874	     14.75646935	     -9.34680817	      5.21174431	      2.43444906	     24.04850004	    -25.04292723	     -8.75492367	    108.52925512	     44.29486354	      0.00000000	      0.00000000	     -7.59268092	     -7.11082703	     -2.71371795	     26.85301386	     44.71221144	      0.00000000	      0.00000000
     46.39742857	     -2.76693897	     -4.95427855	      5.20724244	      1.07772338	      0.93290250	      0.48566267	      6.39517964	      3.43538401	    -15.20787049	     12.54203017	     12.54203017	     10.61621822	     -0.81768918	     -5.77303060	     33.79504114	    -13.24453649	      1.36399473	     57.87951002	     57.87951002	      8.19262822	    -19.12857581	     15.08966310	     -9.31286477	      5.07931566	      2.72427806	     25.47629299	    -25.14321340	     -9.12617745	    109.30837407	     44.29401707	      0.00000000	      0.00000000	     -7.89982227	     -6.90311035	     -2.62737142	     26.79577185	     44.70094145	      0.00000000	      0.00000000
     46.41114286	     -2.83080683	     -4.90263920	      5.67985110	      1.07620672	      0.93285598	      0.48554012	      5.94961449	      3.45011112	    -15.57559012	     12.12376937	     12.12376937	     10.72986676	     -0.73249134	     -5.81021340	     34.13292080	    -12.89206971	      0.90446262	     54.62287968	     54.62287968	      9.10576682	    -19.11052342	     15.66634198	     -9.48031829	      5.09517234	      2.74862323	     26.92332210	    -24.69007175	     -9.57967610	    110.51839373	     44.28779564	      0.00000000	      0.00000000	     -8.22139498	     -6.74850135	     -2.49429298	     26.77047323	     44.69109339	      0.00000000	      0.00000000
     46.42485714	     -3.07701400	     -4.87192398	      6.12797418	      1.07455482	      0.93238610	      0.48525208	      5.79378487	      3.44083459	    -15.88775117	     11.86658962	     11.86658962	     10.87432037	     -0.76189891	     -5.87091751	     34.51371453	    -12.41549704	      0.58540894	     51.08813237	     51.08813237	      9.73013145	    -19.02824441	     15.98411025	     -9.41087150	      5.07680281	      2.98376430	     28.21973976	    -24.68455367	     -9.92328322	    111.14736440	     44.29043736	      0.00000000	      0.00000000	     -8.35423531	     -6.59734413	     -2.42881695	     26.78131410	     44.68694011	      0.00000000	      0.00000000
     46.43857143	     -3.21047584	     -4.82942909	      6.55574294	      1.07295786	      0.93202038	      0.48477710	      5.52072123	      3.40298453	    -16.26987797	     11.63997904	     11.63997904	     11.03079853	     -0.66612236	     -5.98880218	     34.56184648	    -11.83590027	      0.42057119	     47.27968532	     47.27968532	     10.11159379	    -18.83322054	     16.14391885	     -9.49919458	      5.09134245	      3.10370771	     29.49275491	    -24.37833173	    -10.28555603	    111.80566306	     44.29438734	      0.00000000	      0.00000000	     -8.44693802	     -6.48391279	     -2.35092911	     26.78746094	     44.68512853	      0.00000000	      0.00000000
     46.45228571	     -3.37096872	     -4.84402936	      6.98172633	      1.07148329	      0.93143554	      0.48414868	      5.26800027	      3.37875811	    -16.95563298	     11.41620411	     11.41620411	     11.22695277	     -0.06371673	     -6.32152309	     34.44923628	    -11.25023604	      0.42580523	     43.27490192	     43.27490192	      9.85012050	    -18.52263190	     14.92970598	     -9.51534063	      5.15333752	      3.06676033	     30.84584064	    -23.68365400	    -10.87475589	    112.14928119	     44.33420080	      0.00000000	      0.00000000	     -8.56640968	     -6.39275671	     -2.17275096	     26.88474677	     44.69954889	      0.00000000	      0.00000000
     46.46600000	     -3.56696904	     -4.84519061	      7.32865822	      1.07004929	      0.93074809	      0.48343377	      5.13466205	      3.35999271	    -17.17278406	     11.33840752	     11.33840752	     11.43614101	     -0.17460490	     -6.42861387	     34.27915382	    -10.62845449	      0.58239264	     39.36663848	     39.36663848	      9.92595803	    -17.79806912	     14.96434084	     -9.48904950	      5.19448746	      3.37675777	     31.84022936	    -23.69425906	    -10.98229855	    112.27792851	     44.34382445	      0.00000000	      0.00000000	     -8.44667965	     -6.32593673	     -2.13146262	     26.97058385	     44.70545274	      0.00000000	      0.00000000
     46.47971429	     -3.78657017	     -5.02207998	      7.68667990	      1.06875809	      0.92980152	      0.48264711	      5.05305128	      3.51646435	    -17.45256048	     11.28539993	     11.28539993	     11.68988545	     -0.22412004	     -6.57177500	     34.16779619	    -10.21185708	      0.87730155	     35.74126583	     35.74126583	     10.01022622	    -16.54772451	     15.03521999	     -9.38205800	      5.47294529	      3.62826058	     32.69859423	    -23.61184920	    -11.09354131	    112.30842035	     44.35339686	      0.00000000	      0.00000000	     -8.26369019	     -6.24783084	     -2.09877562	     27.07453768	     44.70929388	      0.00000000	      0.00000000
     46.49342857	     -3.72669571	     -4.99853240	      7.95202522	      1.06801147	      0.92936347	      0.48184330	      4.49712116	      3.47684515	    -18.09626952	     11.05688377	     11.05688377	     11.99251513	      0.61408664	     -6.80025997	     33.32879009	     -9.79370607	      0.77662808	     31.83841522	     31.83841522	      8.96541288	    -15.19132942	     12.39676968	     -9.50348142	      5.41641348	      3.34375696	     34.11043569	    -22.42354373	    -11.37220059	    111.01895662	     44.43354072	      0.00000000	      0.00000000	     -8.37666629	     -6.32551079	     -1.95722458	     27.21223582	     44.73414688	      0.00000000	      0.00000000
     46.50714286	     -3.91118180	     -5.12108454	      8.17560148	      1.06717072	      0.92841625	      0.48100128	      4.38286030	      3.57490031	    -18.19621384	     11.08024863	     11.08024863	     12.23930393	      0.49418255	     -6.90143050	     32.99205432	     -9.48972510	      0.87904354	     28.71117152	     28.71117152	      8.84992297	    -13.43283038	     12.48676720	     -9.39774945	      5.53707191	      3.66421571	     34.64500517	    -22.39040962	    -11.27509217	    110.82404355	     44.44319654	      0.00000000	      0.00000000	     -8.12448021	     -6.32954334	     -1.95579447	     27.43250421	     44.74664797	      0.00000000	      0.00000000
     46.52085714	     -3.88464624	     -5.25296996	      8.34099364	      1.06681290	      0.92767759	      0.48011273	      3.95209327	      3.71535365	    -18.42896723	     11.01348292	     11.01348292	     12.63506470	      0.76398897	     -6.79725405	     32.31498173	     -9.38427922	      0.53809083	     25.83500207	     25.83500207	      7.87896309	    -11.53862121	     10.25879603	     -9.41727978	      5.67554272	      3.32686999	     35.76178934	    -21.48452740	    -10.72680203	    109.00458018	     44.53102863	      0.00000000	      0.00000000	     -8.39932490	     -6.47393560	     -1.97121246	     28.23692621	     44.83168439	      0.00000000	      0.00000000
     46.53457143	     -3.97069438	     -5.33620421	      8.45258340	      1.06658649	      0.92686528	      0.47911615	      3.63626279	      3.79115894	    -18.48604049	     10.94476645	     10.94476645	     12.91605846	      0.81310589	     -6.88179156	     31.84759562	     -9.19947523	      0.25348607	     23.65234514	     23.65234514	      7.61708496	     -9.88245612	     10.48098331	     -9.33214941	      5.73907427	      3.68538625	     35.93610326	    -21.32988348	    -10.76456193	    108.39932280	     44.55647240	      0.00000000	      0.00000000	     -8.07439597	     -6.58115056	     -1.99406835	     28.47740590	     44.85046068	      0.00000000	      0.00000000
     46.54828571	     -3.99129591	     -5.43134607	      8.51909165	      1.06667858	      0.92611788	      0.47809520	      3.21427532	      3.89107542	    -18.56037831	     10.85140570	     10.85140570	     13.22723959	      0.96084723	     -6.93394064	     31.34551056	     -9.11195846	     -0.24642134	     22.02081902	     22.02081902	      7.27343119	     -8.37173121	     10.49301400	     -9.25544849	      5.77253917	      3.98515072	     36.02842460	    -21.00666335	    -10.85424838	    107.31085232	     44.59800664	      0.00000000	      0.00000000	     -7.73512313	     -6.74016388	     -2.01667184	     28.75071438	     44.86943290	      0.00000000	      0.00000000
